<?xml version="1.0" encoding="UTF-8"?> <svg xmlns="http://www.w3.org/2000/svg" width="1140" height="1140" viewBox="0 0 1140 1140" fill="none"> <mask id="mask0" maskUnits="userSpaceOnUse" x="0" y="0" width="1140" height="1140"> <circle cx="569.732" cy="569.732" r="569.732" fill="#C4C4C4"></circle> </mask> <g mask="url(#mask0)"> <path d="M532.454 550.808L238.125 256.479L532.454 -37.8495H495.581L201.252 256.479L495.581 550.808L201.252 845.136L495.581 1139.46H532.454L238.125 845.136L532.454 550.808Z" fill="#E09A8E"></path> <path d="M385.292 550.808L90.9636 256.479L385.292 -37.8495H348.419L54.0898 256.479L348.419 550.808L54.0898 845.136L348.419 1139.46H385.292L90.9636 845.136L385.292 550.808Z" fill="#E09A8E"></path> <path d="M458.872 550.808L164.544 256.479L458.872 -37.8495H421.999L127.67 256.479L421.999 550.808L127.67 845.136L421.999 1139.46H458.872L164.544 845.136L458.872 550.808Z" fill="#E09A8E"></path> <path d="M-37.8496 1121.11L-19.4954 1139.46H17.3783L-37.8496 1084.24V1121.11Z" fill="#E09A8E"></path> <path d="M-37.8496 1047.53L54.0868 1139.46H90.9605L-37.8496 1010.66V1047.53Z" fill="#E09A8E"></path> <path d="M-37.8496 900.364L201.251 1139.46H238.124L-37.8496 863.491V900.364Z" fill="#E09A8E"></path> <path d="M-37.8496 973.946L127.669 1139.46H164.543L-37.8496 937.073L-37.8496 973.946Z" fill="#E09A8E"></path> <path d="M311.708 550.808L17.3796 256.479L311.708 -37.8495H274.835L-19.4941 256.479L274.835 550.808L-19.4941 845.136L274.835 1139.46H311.708L17.3796 845.136L311.708 550.808Z" fill="#E09A8E"></path> <path d="M606.036 550.808L311.707 256.479L606.036 -37.8495H569.163L274.834 256.479L569.163 550.808L274.834 845.136L569.163 1139.46H606.036L311.707 845.136L606.036 550.808Z" fill="#E09A8E"></path> <path d="M1121.11 550.808L826.782 256.479L1121.11 -37.8495H1084.24L789.909 256.479L1084.24 550.808L789.909 845.136L1084.24 1139.46H1121.11L826.782 845.136L1121.11 550.808Z" fill="#E09A8E"></path> <path d="M973.949 550.808L679.62 256.479L973.949 -37.8495H937.076L642.747 256.479L937.076 550.808L642.747 845.136L937.076 1139.46H973.949L679.62 845.136L973.949 550.808Z" fill="#E09A8E"></path> <path d="M1047.53 550.808L753.202 256.479L1047.53 -37.8495H1010.66L716.329 256.479L1010.66 550.808L716.329 845.136L1010.66 1139.46H1047.53L753.202 845.136L1047.53 550.808Z" fill="#E09A8E"></path> <path d="M679.619 550.808L385.29 256.479L679.619 -37.8495H642.746L348.417 256.479L642.746 550.808L348.417 845.136L642.746 1139.46H679.619L385.29 845.136L679.619 550.808Z" fill="#E09A8E"></path> <path d="M753.201 550.808L458.872 256.479L753.201 -37.8495H716.328L421.999 256.479L716.328 550.808L421.999 845.136L716.328 1139.46H753.201L458.872 845.136L753.201 550.808Z" fill="#E09A8E"></path> <path d="M826.786 550.808L532.457 256.479L826.786 -37.8495H789.913L495.584 256.479L789.913 550.808L495.584 845.136L789.913 1139.46H826.786L532.457 845.136L826.786 550.808Z" fill="#E09A8E"></path> <path d="M900.366 550.808L606.037 256.479L900.366 -37.8495H863.493L569.164 256.479L863.493 550.808L569.164 845.136L863.493 1139.46H900.366L606.037 845.136L900.366 550.808Z" fill="#E09A8E"></path> <path d="M1084.24 845.141L1139.46 900.369V863.496L1121.11 845.141L1139.46 826.787V789.914L1084.24 845.141Z" fill="#E09A8E"></path> <path d="M973.947 845.141L1139.47 679.622V642.75L937.074 845.141L1139.47 1047.53V1010.66L973.947 845.141Z" fill="#E09A8E"></path> <path d="M1139.47 1121.12V1084.24L900.365 845.141L1139.47 606.04V569.167L863.492 845.141L1139.47 1121.12Z" fill="#E09A8E"></path> <path d="M1084.24 256.485L1139.46 311.712V274.839L1121.11 256.485L1139.46 238.13V201.257L1084.24 256.485Z" fill="#E09A8E"></path> <path d="M1047.53 845.141L1139.47 753.204V716.331L1010.66 845.141L1139.47 973.951V937.078L1047.53 845.141Z" fill="#E09A8E"></path> <path d="M1010.66 256.484L1139.47 385.294V348.421L1047.53 256.484L1139.47 164.548V127.675L1010.66 256.484Z" fill="#E09A8E"></path> <path d="M863.492 256.485L1139.47 532.458V495.586L900.365 256.485L1139.47 17.3835V-19.4894L863.492 256.485Z" fill="#E09A8E"></path> <path d="M937.074 256.485L1139.47 458.877V422.004L973.947 256.485L1139.47 90.966V54.093L937.074 256.485Z" fill="#E09A8E"></path> <path d="M-37.8496 127.675V164.548L164.543 -37.844H127.669L-37.8496 127.675Z" fill="#E09A8E"></path> <path d="M164.543 550.813L-37.8496 348.421L-37.8496 385.294L127.669 550.813L-37.8496 716.332V753.205L164.543 550.813Z" fill="#E09A8E"></path> <path d="M90.9605 550.813L-37.8496 422.004V458.877L54.0868 550.813L-37.8496 642.75V679.623L90.9605 550.813Z" fill="#E09A8E"></path> <path d="M-37.8496 274.839V311.712L201.251 550.813L-37.8496 789.914V826.787L238.124 550.813L-37.8496 274.839Z" fill="#E09A8E"></path> <path d="M-37.8496 54.093V90.9659L90.9605 -37.8438H54.0868L-37.8496 54.093Z" fill="#E09A8E"></path> <path d="M-37.8496 -19.4892V17.3838L17.3783 -37.8438H-19.4954L-37.8496 -19.4892Z" fill="#E09A8E"></path> <path d="M17.3783 550.813L-37.8496 495.585V532.458L-19.4954 550.813L-37.8496 569.168V606.041L17.3783 550.813Z" fill="#E09A8E"></path> <path d="M201.251 -37.8436L-37.8496 201.257V238.13L238.124 -37.8436H201.251Z" fill="#E09A8E"></path> </g> </svg> 