<?xml version="1.0" encoding="UTF-8"?> <svg xmlns="http://www.w3.org/2000/svg" width="385" height="385" viewBox="0 0 385 385" fill="none"> <path fill-rule="evenodd" clip-rule="evenodd" d="M192.5 385C298.815 385 385 298.815 385 192.5C385 86.1852 298.815 0 192.5 0C86.1852 0 0 86.1852 0 192.5C0 298.815 86.1852 385 192.5 385ZM192.5 361.9C286.057 361.9 361.9 286.057 361.9 192.5C361.9 98.943 286.057 23.1 192.5 23.1C98.943 23.1 23.1 98.943 23.1 192.5C23.1 286.057 98.943 361.9 192.5 361.9Z" fill="white"></path> <path d="M125.596 215.214C133.857 226.397 143.349 236.287 155.612 243.283C169.5 251.213 184.451 253.605 200.22 252.876C207.587 252.523 209.803 250.604 210.142 243.27C210.371 238.246 210.952 233.235 213.428 228.72C215.861 224.292 219.553 223.454 223.812 226.209C225.932 227.601 227.718 229.343 229.409 231.207C233.559 235.732 237.577 240.42 241.876 244.797C247.282 250.296 253.693 253.536 261.737 252.876L292.903 252.889C297.919 252.55 300.527 246.407 297.648 240.796C295.62 236.881 292.959 233.397 290.146 230.016C283.777 222.373 276.272 215.858 269.176 208.944C262.78 202.705 262.374 199.083 267.512 191.885C273.135 184.021 279.164 176.47 284.83 168.649C290.116 161.342 295.541 154.046 298.309 145.307C300.081 139.729 298.513 137.271 292.81 136.285C291.823 136.123 290.796 136.123 289.795 136.123L255.883 136.08C251.706 136.014 249.408 137.838 247.932 141.537C245.931 146.537 243.877 151.535 241.494 156.344C236.115 167.286 230.096 177.862 221.66 186.805C219.794 188.775 217.724 191.275 214.617 190.249C210.737 188.831 209.588 182.431 209.654 180.27L209.625 141.16C208.871 135.585 207.624 133.084 202.07 132H166.846C162.157 132 159.79 133.827 157.274 136.756C155.841 138.461 155.392 139.554 158.37 140.121C164.208 141.227 167.523 145.01 168.388 150.861C169.781 160.223 169.685 169.622 168.876 179.01C168.645 181.752 168.173 184.483 167.087 187.049C165.386 191.087 162.626 191.898 159.017 189.414C155.761 187.171 153.463 184.011 151.202 180.837C142.752 168.906 136.02 156.05 130.516 142.539C128.934 138.634 126.19 136.271 122.053 136.202C111.884 136.041 101.704 136.017 91.5211 136.216C85.4095 136.324 83.5837 139.296 86.0862 144.848C97.1604 169.474 109.492 193.41 125.596 215.214Z" fill="white"></path> </svg> 