<?xml version="1.0" encoding="UTF-8"?> <svg xmlns="http://www.w3.org/2000/svg" width="385" height="385" viewBox="0 0 385 385" fill="none"> <path fill-rule="evenodd" clip-rule="evenodd" d="M192.5 0C86.1852 0 0 86.1852 0 192.5C0 298.815 86.1852 385 192.5 385C298.815 385 385 298.815 385 192.5C385 86.1852 298.815 0 192.5 0ZM192.5 23.1C98.943 23.1 23.1 98.943 23.1 192.5C23.1 286.057 98.943 361.9 192.5 361.9C286.057 361.9 361.9 286.057 361.9 192.5C361.9 98.943 286.057 23.1 192.5 23.1ZM276.825 265.724C276.97 264.938 277.077 264.139 277.2 263.35V121.65C277.081 120.874 276.98 120.095 276.835 119.321C275.352 111.384 269.09 105.224 261.401 104.124C261.082 104.081 260.77 104.008 260.456 103.95H124.544C123.724 104.104 122.9 104.221 122.092 104.413C114.587 106.2 109.034 112.519 107.964 120.469C107.921 120.8 107.856 121.129 107.8 121.46V263.547C107.955 264.448 108.078 265.355 108.272 266.25C109.931 273.922 116.195 279.869 123.647 280.87C124.007 280.916 124.37 280.989 124.731 281.05H260.269C261.15 280.893 262.033 280.764 262.903 280.567C269.821 279.032 275.473 272.999 276.825 265.724ZM126.129 254.862C126.129 258.632 129.251 261.873 132.857 261.873C172.61 261.876 212.361 261.876 252.114 261.873C255.754 261.873 258.859 258.637 258.859 254.839C258.862 228.661 258.859 202.485 258.859 176.31V175.766H242.688C244.971 183.395 245.673 191.155 244.778 199.064C243.878 206.976 241.44 214.339 237.469 221.138C233.495 227.945 228.343 233.584 222.035 238.072C205.685 249.714 184.159 250.738 166.81 240.558C158.04 235.417 151.154 228.249 146.353 219.012C139.192 205.229 138.048 190.763 142.249 175.753C136.884 175.758 131.541 175.758 126.126 175.758V176.236C126.126 202.445 126.124 228.653 126.129 254.862ZM191.713 228.368C210.893 228.797 226.406 212.776 226.81 193.291C227.223 173.197 211.72 156.6 192.501 156.612C173.713 156.6 158.439 172.403 158.176 191.956C157.905 212.036 173.28 227.953 191.713 228.368ZM258.857 142.308C258.859 136.718 258.859 131.124 258.857 125.534C258.857 121.523 255.822 118.332 251.99 118.33C246.657 118.327 241.324 118.325 235.989 118.33C232.167 118.335 229.122 121.534 229.12 125.544C229.117 131.086 229.103 136.629 229.139 142.174C229.144 143.001 229.294 143.861 229.545 144.645C230.503 147.595 233.089 149.406 236.255 149.421C238.828 149.426 241.402 149.418 243.977 149.418C246.764 149.386 249.56 149.441 252.348 149.37C255.935 149.277 258.857 146.063 258.857 142.308Z" fill="white"></path> </svg> 