<?xml version="1.0" encoding="UTF-8"?> <svg xmlns="http://www.w3.org/2000/svg" width="385" height="385" viewBox="0 0 385 385" fill="none"> <path fill-rule="evenodd" clip-rule="evenodd" d="M192.5 385C298.815 385 385 298.815 385 192.5C385 86.1852 298.815 0 192.5 0C86.1852 0 0 86.1852 0 192.5C0 298.815 86.1852 385 192.5 385ZM192.5 361.9C286.057 361.9 361.9 286.057 361.9 192.5C361.9 98.943 286.057 23.1 192.5 23.1C98.943 23.1 23.1 98.943 23.1 192.5C23.1 286.057 98.943 361.9 192.5 361.9ZM206.472 277.2V192.49H231.529L234.85 163.299H206.472L206.514 148.688C206.514 141.074 207.29 136.995 219.008 136.995H234.673V107.8H209.612C179.509 107.8 168.914 121.961 168.914 145.775V163.302H150.15V192.493H168.914V277.2H206.472Z" fill="white"></path> </svg> 