<?xml version="1.0" encoding="UTF-8"?> <svg xmlns="http://www.w3.org/2000/svg" width="86" height="86" viewBox="0 0 86 86" fill="none"> <path d="M43 0C19.2874 0 0 19.2873 0 43C0 66.7127 19.2874 86 43 86C66.7128 86 86 66.7127 86 43C86 19.2873 66.7128 0 43 0ZM43 6C63.4702 6 80 22.5299 80 43C80 63.4701 63.4702 80 43 80C22.53 80 6 63.47 6 43C6 22.5299 22.53 6 43 6ZM43 15C34.6304 15 27.7915 20.4516 26.0938 27.25C25.9796 27.6374 25.9447 28.044 25.9914 28.4452C26.038 28.8464 26.1652 29.2341 26.3652 29.585C26.5653 29.9358 26.8342 30.2427 27.1557 30.4871C27.4772 30.7316 27.8447 30.9086 28.2363 31.0076C28.6279 31.1065 29.0354 31.1254 29.4344 31.063C29.8334 31.0006 30.2157 30.8583 30.5584 30.6445C30.9011 30.4308 31.1971 30.1501 31.4287 29.8192C31.6603 29.4882 31.8227 29.114 31.9062 28.7188C32.818 25.0682 37.3559 21 43 21C45.7804 21 48.6925 22.021 50.75 23.6875C52.8076 25.354 54 27.5 54 30C54 33.2833 53.3312 34.7572 52.4375 35.9062C51.5439 37.0554 50.1152 37.9489 48.25 39.2812C46.3848 40.6137 44.1693 42.4534 42.5625 45.4375C40.956 48.4216 40 52.4167 40 58C40 58.7958 40.3161 59.5589 40.8787 60.1216C41.4413 60.6843 42.2044 61.0005 43 61.0005C43.7956 61.0005 44.5587 60.6843 45.1213 60.1216C45.6839 59.5589 46 58.7958 46 58C46 53.0833 46.8257 50.1723 47.8438 48.2812C48.8618 46.3904 50.1157 45.355 51.75 44.1875C53.3842 43.02 55.4566 41.8195 57.1875 39.5938C58.9185 37.3679 60 34.2167 60 30C60 25.5 57.6896 21.6149 54.5 19.0312C51.3102 16.4478 47.2105 15 43 15ZM43.031 63C40.8201 63 38.9998 64.7909 38.9998 67C38.9998 69.2091 40.8202 71 43.031 71C45.2418 71 47.031 69.2091 47.031 67C47.031 64.7909 45.2417 63 43.031 63Z" fill="white"></path> </svg> 