<?xml version="1.0" encoding="UTF-8"?> <svg xmlns="http://www.w3.org/2000/svg" width="385" height="385" viewBox="0 0 385 385" fill="none"> <path fill-rule="evenodd" clip-rule="evenodd" d="M192.5 385C298.815 385 385 298.815 385 192.5C385 86.1852 298.815 0 192.5 0C86.1852 0 0 86.1852 0 192.5C0 298.815 86.1852 385 192.5 385ZM192.5 361.9C286.057 361.9 361.9 286.057 361.9 192.5C361.9 98.943 286.057 23.1 192.5 23.1C98.943 23.1 23.1 98.943 23.1 192.5C23.1 286.057 98.943 361.9 192.5 361.9Z" fill="#E09A8E"></path> <path fill-rule="evenodd" clip-rule="evenodd" d="M128.896 93.7146L164.273 129.092C169.226 134.044 169.226 141.827 164.273 146.78L151.537 159.516C163.566 181.449 171.349 192.77 184.084 205.506C196.112 216.826 210.263 226.024 225.122 232.392L237.857 219.657C242.81 214.704 250.593 214.704 255.546 219.657L290.923 255.034C295.875 259.986 295.875 267.769 290.923 272.722C285.97 277.675 281.017 282.628 276.772 286.873C230.074 334.985 48.9443 154.563 97.0569 107.865C101.302 102.913 106.255 98.6674 111.208 93.7146C116.16 88.7618 123.943 88.7618 128.896 93.7146Z" fill="#E09A8E"></path> </svg> 